<?xml version="1.0" standalone="no"?>
<!DOCTYPE svg PUBLIC "-//W3C//DTD SVG 20010904//EN"
 "http://www.w3.org/TR/2001/REC-SVG-20010904/DTD/svg10.dtd">
<svg version="1.0" xmlns="http://www.w3.org/2000/svg"
 width="500.000000pt" height="500.000000pt" viewBox="0 0 500.000000 500.000000"
 preserveAspectRatio="xMidYMid meet">

<g transform="translate(0.000000,500.000000) scale(0.100000,-0.100000)"
fill="#000000" stroke="none">
<path d="M0 2500 l0 -2500 2500 0 2500 0 0 2500 0 2500 -2500 0 -2500 0 0
-2500z m2635 1332 c44 -22 119 -97 137 -137 13 -29 15 -30 61 -10 20 8 65 15
101 15 233 0 341 -282 166 -433 -37 -31 -68 -44 -152 -62 l-28 -5 0 -145 c0
-80 -4 -145 -9 -145 -5 0 -28 9 -53 20 -144 63 -393 82 -559 42 -47 -11 -110
-30 -140 -41 -30 -12 -55 -21 -56 -21 -2 0 -3 65 -3 144 l0 143 -58 12 c-74
14 -138 55 -177 111 -25 36 -30 55 -33 117 -4 63 -1 81 22 127 43 88 126 138
228 138 38 0 72 -7 98 -20 l40 -19 25 42 c32 56 105 120 158 139 59 22 179 16
232 -12z m100 -1012 c38 -12 94 -33 123 -46 l55 -24 -5 -143 c-5 -123 -9 -152
-33 -217 -31 -86 -97 -184 -149 -224 -20 -15 -61 -39 -92 -53 -50 -23 -65 -25
-142 -21 -105 5 -162 31 -238 107 -101 101 -146 230 -148 425 l-2 129 51 22
c140 61 213 75 380 70 99 -2 147 -8 200 -25z m-470 -874 c28 -19 79 -43 113
-53 61 -18 61 -18 73 -65 l11 -48 48 0 49 0 13 48 c13 45 16 48 69 67 31 11
80 35 108 53 29 17 57 32 62 32 5 0 36 -13 69 -30 33 -16 71 -30 84 -30 20 0
26 -6 31 -33 9 -46 -11 -216 -36 -307 -29 -107 -127 -300 -206 -405 -77 -102
-224 -255 -245 -255 -8 0 -55 42 -105 93 -239 244 -363 504 -380 790 l-6 107
26 0 c14 0 52 16 84 35 32 19 64 34 72 35 8 0 37 -15 66 -34z m920 -396 c10
-17 -5 -31 -23 -21 -44 23 -95 -39 -72 -87 9 -21 16 -24 45 -19 40 7 55 -7 26
-22 -31 -17 -69 -13 -92 10 -27 27 -21 90 12 125 24 25 91 34 104 14z m69 -25
c-6 -35 -6 -35 29 -35 32 0 35 3 41 35 5 22 13 35 23 35 13 0 14 -8 9 -47 -15
-114 -18 -123 -33 -123 -12 0 -14 9 -11 35 4 36 4 36 -31 33 -33 -3 -36 -6
-39 -35 -2 -22 -9 -33 -19 -33 -13 0 -15 9 -9 61 3 34 6 73 6 85 0 18 6 24 20
24 18 0 20 -4 14 -35z m246 25 c0 -5 -16 -10 -35 -10 -19 0 -35 -4 -35 -9 0
-5 -3 -16 -6 -25 -5 -12 0 -16 20 -16 16 0 26 -6 26 -15 0 -9 -9 -15 -24 -15
-15 0 -26 -7 -29 -20 -4 -17 0 -20 29 -20 24 0 34 -5 34 -15 0 -11 -12 -15
-51 -15 l-51 0 7 68 c10 103 9 102 66 102 27 0 49 -4 49 -10z m130 1 c0 -6
-15 -11 -32 -13 -25 -2 -34 -8 -36 -25 -3 -19 1 -23 22 -23 16 0 26 -6 26 -15
0 -10 -10 -15 -30 -15 -28 0 -30 -3 -30 -35 0 -29 -4 -35 -21 -35 -15 0 -19 5
-15 18 2 9 8 47 12 85 l6 67 49 0 c27 0 49 -4 49 -9z m-401 -299 c10 -24 20
-44 24 -45 3 -1 20 19 36 46 17 26 38 47 47 47 14 0 15 -8 10 -57 -10 -90 -17
-113 -30 -113 -10 0 -12 15 -9 53 l4 52 -25 -40 c-14 -22 -31 -40 -38 -40 -7
0 -20 20 -29 44 l-16 44 -6 -33 c-4 -18 -7 -43 -7 -56 0 -15 -6 -24 -16 -24
-13 0 -15 10 -9 68 4 37 9 75 12 85 8 30 34 15 52 -31z m281 33 c14 -16 13
-17 -45 -19 -33 -1 -42 -6 -53 -29 -7 -15 -10 -36 -7 -47 8 -25 38 -42 59 -34
17 7 22 34 6 34 -5 0 -10 7 -10 15 0 9 9 15 25 15 22 0 25 -4 25 -35 0 -39
-20 -55 -69 -55 -67 0 -94 81 -45 139 20 25 34 31 64 31 21 0 43 -6 50 -15z"/>
<path d="M2431 1427 c-18 -171 -36 -326 -38 -343 -5 -27 1 -34 51 -72 30 -23
60 -42 66 -42 13 0 120 78 120 88 0 4 -16 159 -37 345 l-37 337 -45 0 -46 0
-34 -313z"/>
</g>
</svg>
